<svg id="Capa_1" data-name="Capa 1" xmlns="http://www.w3.org/2000/svg" viewBox="0 0 512 512"><defs><style>.cls-1{fill:#fff;}</style></defs><title>info</title><path class="cls-1" d="M788,5.63c-141.15,0-256,114.84-256,256s114.85,256,256,256,256-114.84,256-256S929.14,5.63,788,5.63Zm0,480.49c-123.79,0-224.49-100.71-224.49-224.49S664.2,37.14,788,37.14s224.49,100.71,224.49,224.49S911.77,486.13,788,486.13Z" transform="translate(-531.98 -5.63)"/><circle class="cls-1" cx="260.08" cy="153.92" r="26.35"/><path class="cls-1" d="M785.12,228.88a15.76,15.76,0,0,0-15.75,15.75V378.54a15.75,15.75,0,0,0,31.51,0V244.64A15.75,15.75,0,0,0,785.12,228.88Z" transform="translate(-531.98 -5.63)"/></svg>